<?xml version="1.0" standalone="no"?>
<!DOCTYPE svg PUBLIC "-//W3C//DTD SVG 20010904//EN"
 "http://www.w3.org/TR/2001/REC-SVG-20010904/DTD/svg10.dtd">
<svg version="1.0" xmlns="http://www.w3.org/2000/svg"
 width="116.000000pt" height="116.000000pt" viewBox="0 0 116.000000 116.000000"
 preserveAspectRatio="xMidYMid meet">
<metadata>
Created by potrace 1.11, written by Peter Selinger 2001-2013
</metadata>
<g transform="translate(0.000000,116.000000) scale(0.100000,-0.100000)"
fill="#000000" stroke="none">
<path d="M558 1143 c-22 -26 -25 -183 -3 -183 10 0 15 -10 15 -32 0 -28 -6
-36 -37 -53 -74 -40 -97 -116 -58 -189 l18 -33 -93 -214 c-88 -202 -148 -385
-136 -415 11 -28 32 -11 76 58 71 113 83 139 84 192 2 41 7 53 33 75 21 18 47
65 84 149 l53 124 21 -44 c11 -24 40 -90 64 -148 24 -58 53 -124 63 -146 l19
-42 47 19 c28 10 46 23 44 31 -2 7 -37 91 -79 186 l-75 173 18 37 c36 76 14
147 -59 187 -31 17 -37 25 -37 53 0 22 5 32 15 32 24 0 21 161 -3 183 -24 22
-55 22 -74 0z"/>
<path d="M840 201 c-24 -10 -45 -22 -47 -27 -1 -5 15 -43 35 -84 34 -68 40
-75 67 -75 29 0 30 2 33 51 2 37 -3 65 -20 102 l-23 50 -45 -17z"/>
</g>
</svg>
